<svg width="40" height="52" viewBox="0 0 40 52" fill="none" xmlns="http://www.w3.org/2000/svg">
<path d="M37.4231 1.15381H2.17202C1.53012 1.15381 1.00977 1.67417 1.00977 2.31606V49.9916C1.00977 50.6334 1.53012 51.1538 2.17202 51.1538H37.4231C38.065 51.1538 38.5853 50.6334 38.5853 49.9916V2.31606C38.5853 1.67417 38.065 1.15381 37.4231 1.15381Z" stroke="black" stroke-width="1.5" stroke-linejoin="round"/>
<path d="M19.8031 37.8461C24.8291 37.8461 28.9035 33.7716 28.9035 28.7456C28.9035 23.7196 24.8291 19.6453 19.8031 19.6453C14.7771 19.6453 10.7026 23.7196 10.7026 28.7456C10.7026 33.7716 14.7771 37.8461 19.8031 37.8461Z" stroke="black" stroke-width="1.5" stroke-linejoin="round"/>
<path d="M1.00977 12.4857H38.5853" stroke="black" stroke-width="1.5" stroke-linejoin="round"/>
<path d="M1.00977 44.4825H38.5853" stroke="black" stroke-width="1.5" stroke-linejoin="round"/>
<path d="M9.23886 8.18548C10.0476 8.18548 10.7032 7.52982 10.7032 6.72104C10.7032 5.91225 10.0476 5.25659 9.23886 5.25659C8.43008 5.25659 7.77441 5.91225 7.77441 6.72104C7.77441 7.52982 8.43008 8.18548 9.23886 8.18548Z" fill="black"/>
<path d="M15.8287 8.18548C16.6375 8.18548 17.2931 7.52982 17.2931 6.72104C17.2931 5.91225 16.6375 5.25659 15.8287 5.25659C15.0199 5.25659 14.3643 5.91225 14.3643 6.72104C14.3643 7.52982 15.0199 8.18548 15.8287 8.18548Z" fill="black"/>
<path d="M10.8657 30.5122C12.028 27.5368 15.7937 26.4791 18.1298 26.7C23.1623 27.1765 23.6156 31.0468 28.776 31.0468" stroke="black" stroke-width="1.5" stroke-linejoin="round"/>
</svg>
